<svg width="339px" height="546px" viewBox="349 105 339 546" version="1.1" xmlns="http://www.w3.org/2000/svg" xmlns:xlink="http://www.w3.org/1999/xlink">
    <defs>
        <rect id="path-1" x="0" y="0" width="283" height="211" rx="21"></rect>
        <rect id="path-3" x="0" y="0" width="198" height="171"></rect>
    </defs>
    <g id="Group-2" stroke="none" stroke-width="1" fill="none" fill-rule="evenodd" transform="translate(349.000000, 105.000000)">
        <g id="odroid-go">
            <g id="">
                <g id="ODROID-GO">
                    <rect id="Case" fill="#D8D8D8" fill-rule="nonzero" x="0" y="0" width="339" height="546" rx="8"></rect>
                    <g id="Screen-Backing" opacity="0.48363904" transform="translate(29.000000, 42.000000)">
                        <g id="path-1-Clipped">
                            <mask id="mask-2" fill="white">
                                <use xlink:href="#path-1"></use>
                            </mask>
                            <g id="path-1"></g>
                            <rect id="path-1" stroke="#979797" stroke-width="2" fill="#030303" fill-rule="nonzero" mask="url(#mask-2)" x="0" y="0" width="283" height="211" rx="21"></rect>
                        </g>
                    </g>
                    <g id="Screen" transform="translate(71.000000, 63.000000)">
                        <g id="path-3-Clipped">
                            <mask id="mask-4" fill="white">
                                <use xlink:href="#path-3"></use>
                            </mask>
                            <g id="path-3"></g>
                            <rect id="path-3" stroke="#979797" stroke-width="2" fill="#F4F4F4" fill-rule="nonzero" mask="url(#mask-4)" x="0" y="0" width="198" height="171"></rect>
                        </g>
                    </g>
                    <g id="Control-Button" transform="translate(29.000000, 316.000000)" fill-rule="nonzero" fill="#595959">
                        <rect id="Rectangle-4" x="27" y="0" width="28" height="86" rx="3"></rect>
                        <rect id="Rectangle-4" x="0" y="29" width="85" height="28" rx="3"></rect>
                    </g>
                    <g id="Select-Buttons" transform="translate(61.000000, 269.000000)" fill-rule="nonzero" fill="#595959">
                        <rect id="Rectangle-5" x="0" y="0" width="27" height="9" rx="4.5"></rect>
                        <rect id="Rectangle-5" x="53" y="0" width="27" height="9" rx="4.5"></rect>
                        <rect id="Rectangle-5" x="137" y="0" width="27" height="9" rx="4.5"></rect>
                        <rect id="Rectangle-5" x="195" y="0" width="27" height="9" rx="4.5"></rect>
                    </g>
                    <g id="Action-Buttons" transform="translate(207.000000, 316.000000)" fill-rule="nonzero" fill="#595959">
                        <ellipse id="Oval-2" cx="17.5" cy="39.5" rx="17.5" ry="17.5"></ellipse>
                        <ellipse id="Oval-2" cx="79.5" cy="17.5" rx="17.5" ry="17.5"></ellipse>
                    </g>
                    <g id="Speaker" transform="translate(29.000000, 444.000000)" fill-rule="nonzero">
                        <circle id="Oval" fill="#5A5A5A" opacity="0.830276268" cx="42.5" cy="42.5" r="42.5"></circle>
                        <circle id="Oval-3" stroke="#999999" fill="#343434" cx="43" cy="73" r="3"></circle>
                        <circle id="Oval-3" stroke="#999999" fill="#343434" cx="22" cy="62" r="3"></circle>
                        <circle id="Oval-3" stroke="#999999" fill="#343434" cx="75" cy="42" r="3"></circle>
                        <circle id="Oval-3" stroke="#999999" fill="#343434" cx="11" cy="42" r="3"></circle>
                        <circle id="Oval-3" stroke="#999999" fill="#343434" cx="66" cy="21" r="3"></circle>
                        <circle id="Oval-3" stroke="#999999" fill="#343434" cx="63" cy="62" r="3"></circle>
                        <circle id="Oval-3" stroke="#999999" fill="#343434" cx="43" cy="12" r="3"></circle>
                        <circle id="Oval-3" stroke="#999999" fill="#343434" cx="35" cy="24" r="3"></circle>
                        <circle id="Oval-3" stroke="#999999" fill="#343434" cx="49" cy="27" r="3"></circle>
                        <circle id="Oval-3" stroke="#999999" fill="#343434" cx="25" cy="49" r="3"></circle>
                        <circle id="Oval-3" stroke="#999999" fill="#343434" cx="41" cy="42" r="3"></circle>
                        <circle id="Oval-3" stroke="#999999" fill="#343434" cx="63" cy="33" r="3"></circle>
                        <circle id="Oval-3" stroke="#999999" fill="#343434" cx="52" cy="56" r="3"></circle>
                        <circle id="Oval-3" stroke="#999999" fill="#343434" cx="25" cy="36" r="3"></circle>
                        <circle id="Oval-3" stroke="#999999" fill="#343434" cx="19" cy="21" r="3"></circle>
                        <circle id="Oval-3" stroke="#999999" fill="#343434" cx="38" cy="59" r="3"></circle>
                        <circle id="Oval-3" stroke="#999999" fill="#343434" cx="60" cy="46" r="3"></circle>
                    </g>
                    <g id="Battery" transform="translate(128.000000, 403.000000)">
                        <rect id="Rectangle-6" fill="#BCBCBC" fill-rule="nonzero" opacity="0.446218297" x="0" y="0" width="199" height="126"></rect>
                        <rect id="Rectangle-7" fill="#4990E2" fill-rule="nonzero" opacity="0.62256567" x="0" y="0" width="40" height="126"></rect>
                        <path d="M8.5,18.5 L186.5,18.5" id="Line" stroke="#E7E7E7" stroke-width="3" stroke-linecap="square"></path>
                        <path d="M8.5,40.5 L186.5,40.5" id="Line-Copy" stroke="#E7E7E7" stroke-width="3" stroke-linecap="square"></path>
                        <path d="M8.5,62.5 L186.5,62.5" id="Line-Copy-2" stroke="#E7E7E7" stroke-width="3" stroke-linecap="square"></path>
                        <path d="M8.5,84.5 L186.5,84.5" id="Line-Copy-3" stroke="#E7E7E7" stroke-width="3" stroke-linecap="square"></path>
                        <path d="M8.5,106.5 L186.5,106.5" id="Line-Copy-4" stroke="#E7E7E7" stroke-width="3" stroke-linecap="square"></path>
                    </g>
                </g>
            </g>
        </g>
        <g id="logo" transform="translate(92.000000, 86.000000)" fill-rule="nonzero">
            <g id="Group">
                <path d="M13.5501706,98.6933333 C14.6150171,98.6933333 15.4935154,99.0666667 16.2389078,99.8133333 C16.9843003,100.56 17.3569966,101.466667 17.3569966,102.506667 L17.3569966,115.733333 L3.86006826,115.733333 C2.79522184,115.733333 1.91672355,115.36 1.17133106,114.613333 C0.425938567,113.866667 0.0532423208,112.96 0.0532423208,111.92 L0.0532423208,105.626667 L14.1890785,105.626667 L14.1890785,102.506667 C14.1890785,102.32 14.1358362,102.186667 14.0027304,102.053333 C13.8696246,101.92 13.7365188,101.866667 13.5501706,101.866667 L0.0532423208,101.866667 L0.0532423208,98.6933333 L13.5501706,98.6933333 Z M14.1890785,112.56 L14.1890785,108.8 L3.22116041,108.8 L3.22116041,111.92 C3.22116041,112.106667 3.27440273,112.24 3.40750853,112.373333 C3.54061433,112.506667 3.67372014,112.56 3.86006826,112.56 L14.1890785,112.56 L14.1890785,112.56 Z M44.7235495,98.6933333 L48.1044369,98.6933333 L41.7153584,115.733333 L39.1331058,115.733333 L33.4095563,103.066667 L28.0054608,115.733333 L27.9522184,115.706667 L27.9788396,115.733333 L25.4232082,115.733333 L18.7412969,98.6933333 L22.0955631,98.6933333 L26.7010239,110 L31.5993174,98.6933333 L35.2197952,98.6933333 L40.4109215,110 L44.7235495,98.6933333 Z M62.6129693,98.6933333 C63.6778157,98.6933333 64.556314,99.0666667 65.3017065,99.8133333 C66.047099,100.56 66.4197952,101.466667 66.4197952,102.506667 L66.4197952,108.8 L52.283959,108.8 L52.283959,111.92 C52.283959,112.106667 52.3372014,112.24 52.4703072,112.373333 C52.603413,112.506667 52.7365188,112.56 52.9228669,112.56 L66.4197952,112.56 L66.4197952,115.733333 L52.9228669,115.733333 C51.8580205,115.733333 50.9795222,115.36 50.2341297,114.613333 C49.4887372,113.866667 49.116041,112.96 49.116041,111.92 L49.116041,102.506667 C49.116041,101.44 49.4887372,100.56 50.2341297,99.8133333 C50.9795222,99.0666667 51.8846416,98.6933333 52.9228669,98.6933333 L62.6129693,98.6933333 L62.6129693,98.6933333 Z M52.283959,105.626667 L63.2518771,105.626667 L63.2518771,102.506667 C63.2518771,102.32 63.1986348,102.186667 63.065529,102.053333 C62.9324232,101.92 62.7993174,101.866667 62.6129693,101.866667 L52.9228669,101.866667 C52.7365188,101.866667 52.603413,101.92 52.4703072,102.053333 C52.3372014,102.186667 52.283959,102.32 52.283959,102.506667 L52.283959,105.626667 L52.283959,105.626667 Z M86.625256,102.533333 L86.625256,103.173333 L83.4573379,103.173333 L83.4573379,102.533333 C83.4573379,102.346667 83.4040956,102.213333 83.2709898,102.08 C83.137884,101.946667 83.0047782,101.893333 82.81843,101.893333 L73.1283276,101.893333 C72.9419795,101.893333 72.8088737,101.946667 72.6757679,102.08 C72.5426621,102.213333 72.4894198,102.346667 72.4894198,102.533333 L72.4894198,105.013333 C72.4894198,105.2 72.5426621,105.333333 72.6757679,105.466667 C72.8088737,105.6 72.9419795,105.653333 73.1283276,105.653333 L82.81843,105.653333 C83.8832765,105.653333 84.7617747,106.026667 85.5071672,106.773333 C86.2525597,107.52 86.625256,108.426667 86.625256,109.466667 L86.625256,111.946667 C86.625256,113.013333 86.2525597,113.893333 85.5071672,114.64 C84.7617747,115.386667 83.8566553,115.76 82.81843,115.76 L73.1283276,115.76 C72.0634812,115.76 71.1849829,115.386667 70.4395904,114.64 C69.694198,113.893333 69.3215017,112.986667 69.3215017,111.946667 L69.3215017,111.306667 L72.4894198,111.306667 L72.4894198,111.946667 C72.4894198,112.133333 72.5426621,112.266667 72.6757679,112.4 C72.8088737,112.533333 72.9419795,112.586667 73.1283276,112.586667 L82.81843,112.586667 C83.0047782,112.586667 83.137884,112.533333 83.2709898,112.4 C83.4040956,112.266667 83.4573379,112.133333 83.4573379,111.946667 L83.4573379,109.466667 C83.4573379,109.28 83.4040956,109.146667 83.2709898,109.013333 C83.137884,108.88 83.0047782,108.826667 82.81843,108.826667 L73.1283276,108.826667 C72.0634812,108.826667 71.1849829,108.453333 70.4395904,107.706667 C69.694198,106.96 69.3215017,106.053333 69.3215017,105.013333 L69.3215017,102.533333 C69.3215017,101.466667 69.694198,100.586667 70.4395904,99.84 C71.1849829,99.0933333 72.0901024,98.72 73.1283276,98.72 L82.81843,98.72 C83.8832765,98.72 84.7617747,99.0933333 85.5071672,99.84 C86.2525597,100.56 86.625256,101.466667 86.625256,102.533333 Z M93.3337884,98.6933333 L103.023891,98.6933333 C104.088737,98.6933333 104.967235,99.0666667 105.712628,99.8133333 C106.45802,100.56 106.830717,101.466667 106.830717,102.506667 L106.830717,111.92 C106.830717,112.986667 106.45802,113.866667 105.712628,114.613333 C104.967235,115.36 104.062116,115.733333 103.023891,115.733333 L93.3337884,115.733333 C92.268942,115.733333 91.3904437,115.36 90.6450512,114.613333 C89.8996587,113.866667 89.5269625,112.96 89.5269625,111.92 L89.5269625,102.506667 C89.5269625,101.44 89.8996587,100.56 90.6450512,99.8133333 C91.3904437,99.0666667 92.2955631,98.6933333 93.3337884,98.6933333 L93.3337884,98.6933333 Z M103.023891,101.866667 L93.3337884,101.866667 C93.1474403,101.866667 93.0143345,101.92 92.8812287,102.053333 C92.7481229,102.186667 92.6948805,102.32 92.6948805,102.506667 L92.6948805,111.92 C92.6948805,112.106667 92.7481229,112.24 92.8812287,112.373333 C93.0143345,112.506667 93.1474403,112.56 93.3337884,112.56 L103.023891,112.56 C103.210239,112.56 103.343345,112.506667 103.476451,112.373333 C103.609556,112.24 103.662799,112.106667 103.662799,111.92 L103.662799,102.506667 C103.662799,102.32 103.609556,102.186667 103.476451,102.053333 C103.343345,101.946667 103.210239,101.866667 103.023891,101.866667 Z M131.641638,98.6933333 C132.706485,98.6933333 133.584983,99.0666667 134.330375,99.8133333 C135.075768,100.56 135.448464,101.466667 135.448464,102.506667 L135.448464,115.733333 L132.307167,115.733333 L132.307167,102.506667 C132.307167,102.32 132.253925,102.186667 132.120819,102.053333 C131.987713,101.92 131.827986,101.866667 131.641638,101.866667 L124.933106,101.866667 C124.746758,101.866667 124.613652,101.92 124.480546,102.053333 C124.34744,102.186667 124.294198,102.32 124.294198,102.506667 L124.294198,115.733333 L121.12628,115.733333 L121.12628,102.506667 C121.12628,102.32 121.073038,102.186667 120.939932,102.053333 C120.806826,101.92 120.67372,101.866667 120.487372,101.866667 L113.752218,101.866667 C113.56587,101.866667 113.432765,101.92 113.299659,102.053333 C113.166553,102.186667 113.113311,102.32 113.113311,102.506667 L113.113311,115.733333 L109.945392,115.733333 L109.945392,98.6933333 L131.641638,98.6933333 Z M152.006826,98.6933333 C153.071672,98.6933333 153.950171,99.0666667 154.695563,99.8133333 C155.440956,100.56 155.813652,101.466667 155.813652,102.506667 L155.813652,108.8 L141.677816,108.8 L141.677816,111.92 C141.677816,112.106667 141.731058,112.24 141.864164,112.373333 C141.99727,112.506667 142.130375,112.56 142.316724,112.56 L155.813652,112.56 L155.813652,115.733333 L142.316724,115.733333 C141.251877,115.733333 140.373379,115.36 139.627986,114.613333 C138.882594,113.866667 138.509898,112.96 138.509898,111.92 L138.509898,102.506667 C138.509898,101.44 138.882594,100.56 139.627986,99.8133333 C140.373379,99.0666667 141.278498,98.6933333 142.316724,98.6933333 L152.006826,98.6933333 L152.006826,98.6933333 Z M141.677816,105.626667 L152.645734,105.626667 L152.645734,102.506667 C152.645734,102.32 152.592491,102.186667 152.459386,102.053333 C152.32628,101.92 152.193174,101.866667 152.006826,101.866667 L142.316724,101.866667 C142.130375,101.866667 141.99727,101.92 141.864164,102.053333 C141.731058,102.186667 141.677816,102.32 141.677816,102.506667 L141.677816,105.626667 L141.677816,105.626667 Z" id="Shape" fill="#494368"></path>
                <path d="M155.787031,36.8 L115.85529,0.106666667 L110.238225,6.24 L143.514676,36.8 L12.3522184,36.8 L45.6286689,6.21333333 L40.0116041,0.08 L0.0798634812,36.8 L0.0532423208,36.8 L0.0532423208,60.9866667 C0.0532423208,71.92 10.5686007,80.8266667 23.4798635,80.8266667 L48.1044369,80.8266667 C61.0156997,80.8266667 71.531058,71.92 71.531058,60.9866667 L71.531058,45.0933333 L84.309215,45.0933333 L84.309215,60.9866667 C84.309215,71.92 94.8245734,80.8266667 107.735836,80.8266667 L132.36041,80.8266667 C145.271672,80.8266667 155.787031,71.92 155.787031,60.9866667 L155.787031,36.8 Z" id="Shape" fill="#FC60A8"></path>
            </g>
        </g>
    </g>
</svg>